<?xml version="1.0" encoding="utf-8"?>
<svg viewBox="59.7489 90.4074 260.3589 103.0366" xmlns="http://www.w3.org/2000/svg">
  <path d="M 96.529 133.216 C 95.965 133.221 95.4 133.122 94.889 132.927 C 94.375 132.731 93.918 132.447 93.555 132.097 L 69.963 109.209 C 69.332 108.64 68.985 107.905 68.985 107.136 C 68.985 106.373 69.332 105.637 69.963 105.064 L 79.298 97.352 C 79.661 97.045 80.102 96.804 80.589 96.639 C 81.07 96.472 81.593 96.393 82.119 96.398 L 110.425 96.398 C 111.45 96.398 112.425 96.725 113.144 97.309 L 122.427 104.774 C 123.084 105.322 123.473 106.048 123.523 106.809 C 123.565 107.57 123.275 108.323 122.684 108.919 L 99.502 132.014 C 99.153 132.384 98.701 132.676 98.185 132.881 C 97.674 133.079 97.103 133.183 96.529 133.173 L 96.529 133.216 Z M 78.118 107.385 L 96.479 125.213 L 114.532 107.22 L 108.837 102.618 L 83.758 102.618 L 78.118 107.385 Z" fill="#000000" style=""/>
  <path d="M 96.326 176.294 C 89.093 176.289 82.02 174.549 76.009 171.299 C 69.994 168.045 65.305 163.433 62.537 158.027 C 59.768 152.627 59.043 146.683 60.445 140.945 C 61.846 135.21 65.324 129.933 70.425 125.794 C 70.781 125.487 71.207 125.241 71.676 125.071 C 72.15 124.903 72.656 124.809 73.175 124.802 C 73.693 124.799 74.207 124.875 74.683 125.03 C 75.159 125.19 75.594 125.421 75.96 125.715 C 76.332 126.009 76.617 126.362 76.805 126.75 C 77.001 127.138 77.098 127.551 77.086 127.97 C 77.076 128.386 76.963 128.799 76.754 129.183 C 76.544 129.563 76.24 129.903 75.863 130.187 C 71.836 133.464 69.099 137.632 67.994 142.163 C 66.893 146.693 67.478 151.391 69.673 155.653 C 71.865 159.92 75.576 163.565 80.323 166.127 C 85.078 168.689 90.659 170.059 96.373 170.059 C 102.089 170.059 107.678 168.689 112.425 166.127 C 117.18 163.565 120.889 159.92 123.084 155.653 C 125.278 151.391 125.86 146.693 124.755 142.163 C 123.659 137.632 120.919 133.464 116.89 130.187 C 116.169 129.604 115.766 128.817 115.766 127.993 C 115.766 127.168 116.169 126.377 116.89 125.794 C 117.241 125.497 117.67 125.268 118.137 125.109 C 118.603 124.949 119.103 124.868 119.604 124.868 C 120.113 124.868 120.618 124.949 121.084 125.109 C 121.548 125.268 121.972 125.497 122.323 125.794 C 127.448 129.933 130.942 135.21 132.356 140.953 C 133.77 146.698 133.041 152.652 130.271 158.063 C 127.5 163.471 122.802 168.096 116.775 171.35 C 110.755 174.602 103.672 176.34 96.427 176.335 L 96.326 176.294 Z" fill="#000000" style=""/>
  <path d="M 121.85 113.53 L 121.85 93.49 L 124.5 93.49 L 124.5 101.72 L 134.92 101.72 L 134.92 93.49 L 137.57 93.49 L 137.57 113.53 L 134.92 113.53 L 134.92 104.08 L 124.5 104.08 L 124.5 113.53 Z M 140.76 113.53 L 140.76 93.49 L 143.41 93.49 L 143.41 103.43 L 153.36 93.49 L 156.96 93.49 L 148.55 101.61 L 157.33 113.53 L 153.83 113.53 L 146.69 103.39 L 143.41 106.59 L 143.41 113.53 Z M 158.57 107.84 L 160.97 107.52 Q 160.97 108.82 161.18 109.43 L 161.43 110.13 Q 161.49 110.28 161.58 110.39 L 161.83 110.66 Q 162.59 111.51 163.95 111.51 Q 164.48 111.51 164.68 111.47 L 164.99 111.4 Q 165.09 111.39 165.23 111.3 L 165.63 111.07 Q 166.3 110.67 166.67 109.81 Q 166.79 109.42 166.87 108.82 L 166.9 107.97 L 166.94 107.3 L 166.94 93.49 L 169.59 93.49 L 169.59 107.15 Q 169.59 109.32 169.17 110.57 Q 168.59 112.29 167.05 113.15 Q 165.74 113.87 163.96 113.87 Q 161.43 113.87 159.91 112.36 Q 159.31 111.75 158.94 110.41 Q 158.57 109.13 158.57 107.84 Z" transform="matrix(3.343824, 0, 0, 3.28272, -256.845219, -199.064441)" style="fill: rgb(51, 51, 51);"/>
</svg>