<svg xmlns="http://www.w3.org/2000/svg" version="1.1" xmlns:xlink="http://www.w3.org/1999/xlink" xmlns:svgjs="http://svgjs.dev/svgjs" viewBox="0 0 800 800"><defs><linearGradient x1="50%" y1="0%" x2="50%" y2="100%" id="ccchaos-grad"><stop stop-color="hsl(206, 75%, 49%)" stop-opacity="1" offset="0%"></stop><stop stop-color="hsl(331, 90%, 56%)" stop-opacity="1" offset="100%"></stop></linearGradient></defs><g stroke-width="2" stroke="url(#ccchaos-grad)" fill="none" stroke-linecap="round"><path d="M385.23 114.94C394.75 110.57 404.35 107.06 414.01 104.73 423.7 103.34 433.48 103.59 443.34 105.5 453.26 108.62 463.3 113.25 473.45 119.13 483.69 125.66 494.08 132.9 504.6 140.51 515.23 147.9 526 155.14 536.86 162.03 547.8 168.09 558.8 173.6 569.77 178.56 580.71 182.61 591.51 186.24 602.04 189.61 612.35 192.4 622.2 195.23 631.44 198.27 640.17 201.2 648.06 204.61 654.96 208.61 661.08 212.84 666.03 217.8 669.67 223.49 672.43 229.56 673.85 236.36 673.93 243.81 673.29 251.63 671.49 260.02 668.68 268.86 665.64 277.98 662.01 287.44 658.05 297.13 654.59 306.99 651.33 316.99 648.56 327.03 647 337.15 646.35 347.25 646.75 357.25 648.72 367.28 651.83 377.16 655.99 386.84 661.47 396.52 667.46 405.74 673.63 414.5 680.24 423.25 686.37 431.55 691.72 439.41 696.57 447.3 700.11 454.82 702.15 462.02 703.11 469.36 702.37 476.51 699.94 483.57 696.29 490.97 691.07 498.49 684.43 506.26 676.85 514.61 668.15 523.43 658.58 532.83 648.52 542.98 637.93 553.83 627.01 565.36 616.04 577.53 605.02 590.21 594.07 603.2 583.36 616.24 572.87 629.05 562.65 641.21 552.79 652.44 543.21 662.27 533.9 670.24 524.95 676.37 516.2 680.14 507.62 681.38 499.31 680.67 491.06 677.71 482.84 672.85 474.79 667.26 466.66 660.96 458.43 654.71 450.29 649.84 441.97 646.45 433.46 645.15 424.97 646.8 416.26 651.05 407.33 657.78 398.39 666.92 389.22 677.43 379.82 688.36 370.42 699.08 361.04 707.94 351.7 714.15 342.39 717.69 333.15 717.67 324.03 714.14 314.96 707.77 306.04 698.62 297.32 687.42 288.68 675.17 280.27 662.37 272.16 649.82 264.13 638.3 256.42 628.11 249.07 619.58 241.82 613.11 234.94 608.42 228.46 605.32 219.07 603.81 202.33 605.09 194.92 605.58 187.78 604.89 174.79 596.6 168.77 588.72 164.6 582.29 160.59 574.77 156.73 566.35 152.6 557.37 148.6 547.73 144.75 537.62 140.63 527.2 136.69 516.51 132.95 505.7 129.04 494.78 125.39 483.85 122.09 473.02 118.74 462.18 115.81 451.48 113.4 440.99 111.09 430.5 109.38 420.23 108.35 410.21 107.57 400.19 107.54 390.62 108.27 381.51 109.29 372.37 111.06 363.64 113.54 355.29 116.28 346.87 119.68 338.76 123.68 330.93 127.84 322.94 132.52 315.13 137.64 307.44 142.79 299.48 148.3 291.52 154.11 283.5 159.81 275.1 165.73 266.54 171.83 257.76 177.73 248.56 183.76 239.13 189.91 229.5 195.8 219.56 201.82 209.54 207.94 199.55 213.82 189.59 219.83 179.95 226 170.83 231.97 162.2 238.13 154.42 244.5 147.71 250.73 141.89 257.2 137.32 263.94 134.09 270.59 131.74 277.54 130.6 284.77 130.53 291.96 130.81 299.46 131.67 307.26 132.83 315.04 133.47 323.13 133.83 331.51 133.66 339.88 132.32 348.55 130.22 357.51 127.38 366.45 123.48 375.69 119.23 385.22 114.95" stroke-dasharray="2 1" transform="rotate(0, 400, 400)" opacity="0.11"></path><path d="M389.56 125.97C398.82 121.64 408.18 118.13 417.63 115.71 427.1 114.18 436.68 114.17 446.36 115.75 456.09 118.48 465.95 122.69 475.92 128.15 485.96 134.33 496.13 141.28 506.4 148.72 516.74 156.08 527.17 163.43 537.64 170.54 548.12 176.98 558.59 182.94 568.96 188.4 579.22 192.99 589.27 197.15 598.97 200.96 608.38 204.12 617.28 207.19 625.52 210.31 633.24 213.16 640.12 216.34 646 219.94 653.2 225.74 660.59 240.8 660.71 250.14 659.81 256.87 657.93 264.17 655.19 271.96 652.34 280 649.03 288.44 645.48 297.18 642.46 306.08 639.68 315.2 637.36 324.44 636.19 333.76 635.84 343.14 636.43 352.51 638.46 361.9 641.5 371.23 645.46 380.44 650.63 389.66 656.24 398.52 662.01 407.04 668.21 415.55 674 423.74 679.09 431.63 683.79 439.57 687.33 447.29 689.54 454.84 690.82 462.57 690.54 470.26 688.73 478.02 685.82 486.11 681.42 494.44 675.67 503.11 669.02 512.3 661.25 521.97 652.58 532.19 643.37 542.97 633.55 554.31 623.31 566.14 612.92 578.32 602.36 590.74 591.76 603.15 581.3 615.32 570.95 626.95 560.78 637.66 550.89 647.29 541.21 655.37 531.76 661.57 522.62 666.02 513.67 668.26 504.89 668.24 496.36 666.6 487.93 663.1 479.56 658.09 471.36 652.71 463.15 646.95 454.89 641.47 446.73 637.47 438.46 634.97 430.08 634.46 421.73 636.67 413.22 641.23 404.55 647.98 395.89 656.87 387.05 666.94 378.06 677.34 369.06 687.53 360.13 696.05 351.28 702.15 342.45 705.88 333.73 706.36 325.16 703.61 316.62 698.2 308.26 690.11 300.13 679.94 292.05 668.57 284.21 656.42 276.67 644.18 269.2 632.62 262.03 622.02 255.22 612.75 248.48 605.24 242.08 599.31 236.07 594.9 227.3 591.39 211.58 589.9 204.56 589.94 197.73 589.61 185.12 583.93 179.2 578.02 175.08 573.09 171.1 567.1 167.25 560.19 163.14 552.76 159.15 544.57 155.3 535.8 151.19 526.69 147.25 517.18 143.52 507.4 139.62 497.46 135.98 487.38 132.68 477.27 129.34 467.11 126.42 456.99 123.99 446.96 121.68 436.94 119.95 427.04 118.88 417.3 118.06 407.56 117.98 398.2 118.63 389.2 119.58 380.18 121.26 371.48 123.63 363.07 126.27 354.58 129.56 346.32 133.43 338.25 137.48 330.01 142.04 321.86 147.05 313.76 152.1 305.4 157.52 296.98 163.24 288.46 168.88 279.62 174.76 270.61 180.81 261.42 186.69 251.92 192.71 242.26 198.85 232.5 204.76 222.59 210.78 212.74 216.9 203.07 222.79 193.59 228.8 184.55 234.94 176.17 240.88 168.37 246.99 161.5 253.27 155.72 259.41 150.79 265.76 147.08 272.34 144.6 278.82 142.88 285.57 142.22 292.57 142.47 299.52 142.93 306.76 143.82 314.28 144.88 321.76 145.36 329.55 145.49 337.63 145.09 345.69 143.56 354.05 141.3 362.71 138.36 371.35 134.45 380.3 130.21 389.55 125.97" stroke-dasharray="11 8" transform="rotate(4.04, 400, 400)" opacity="0.39"></path><path d="M394.47 137C403.46 132.72 412.57 129.21 421.78 126.73 431.01 125.05 440.36 124.81 449.81 126.06 459.3 128.41 468.91 132.18 478.62 137.21 488.37 142.98 498.22 149.6 508.14 156.79 518.08 164.04 528.07 171.39 538.03 178.65 547.96 185.37 557.8 191.72 567.46 197.63 576.98 202.76 586.21 207.45 595.02 211.76 603.52 215.39 611.46 218.83 618.71 222.19 628.41 226.75 642.25 237 646.03 243.2 647.74 250.13 645.34 267.15 641.79 277.14 639.17 284.17 636.2 291.63 633.07 299.44 630.49 307.4 628.15 315.64 626.27 324.08 625.45 332.59 625.37 341.25 626.14 349.99 628.21 358.75 631.16 367.54 634.93 376.33 639.79 385.12 645.03 393.69 650.42 402.03 656.22 410.39 661.66 418.55 666.49 426.55 671.03 434.63 674.53 442.61 676.86 450.57 678.39 458.72 678.52 466.95 677.25 475.35 675 484.07 671.37 493.08 666.46 502.46 660.7 512.26 653.85 522.5 646.07 533.19 637.74 544.26 628.74 555.7 619.24 567.4 609.52 579.2 599.52 590.97 589.4 602.46 579.31 613.46 569.23 623.7 559.25 632.82 549.46 640.78 539.82 647.15 530.37 651.66 521.15 654.59 512.1 655.52 503.22 654.47 494.55 652.15 485.99 648.32 477.53 643.36 469.23 638.33 460.95 633.19 452.69 628.52 444.52 625.38 436.3 623.73 428.03 623.94 419.8 626.65 411.47 631.45 403.05 638.19 394.64 646.82 386.12 656.43 377.5 666.31 368.87 676 360.35 684.16 351.97 690.14 343.59 694.02 335.35 694.94 327.3 692.9 319.26 688.4 311.43 681.33 303.83 672.2 296.27 661.77 288.97 650.37 281.95 638.62 274.99 627.21 268.32 616.43 261.99 606.65 255.71 598.3 249.75 591.32 244.14 585.72 235.92 580.26 221.07 575.56 214.36 574.71 207.77 574.17 195.45 569.92 189.59 565.45 185.5 561.7 181.54 557.01 177.69 551.42 173.59 545.39 169.6 538.58 165.75 531.11 161.66 523.32 157.73 515.02 154 506.33 150.12 497.46 146.51 488.33 143.22 479.03 139.9 469.66 136.99 460.21 134.56 450.74 132.25 441.26 130.51 431.79 129.41 422.37 128.56 412.95 128.43 403.8 129 394.91 129.87 385.99 131.46 377.3 133.71 368.8 136.24 360.23 139.39 351.79 143.13 343.45 147.05 334.96 151.48 326.5 156.35 318.01 161.29 309.31 166.6 300.52 172.21 291.62 177.78 282.47 183.58 273.18 189.57 263.77 195.42 254.17 201.42 244.5 207.53 234.85 213.45 225.2 219.47 215.73 225.59 206.59 231.5 197.76 237.51 189.49 243.64 181.97 249.58 175.08 255.66 169.15 261.89 164.3 267.97 160.25 274.24 157.33 280.71 155.53 287.06 154.37 293.66 154.1 300.49 154.58 307.25 155.14 314.27 155.99 321.56 156.92 328.81 157.2 336.34 157.1 344.16 156.47 351.95 154.74 360.04 152.34 368.42 149.32 376.79 145.4 385.47 141.19 394.46 137" stroke-dasharray="1 6" transform="rotate(8.08, 400, 400)" opacity="0.91"></path><path d="M399.68 148.02C408.41 143.81 417.25 140.32 426.19 137.78 435.15 135.98 444.22 135.51 453.38 136.44 462.58 138.41 471.87 141.75 481.23 146.32 490.61 151.65 500.06 157.88 509.52 164.76 518.99 171.8 528.43 179.08 537.79 186.38 547.09 193.29 556.23 199.94 565.13 206.24 573.84 211.86 582.21 217.07 590.12 221.89 597.71 226.05 604.71 229.94 611 233.68 619.33 238.62 630.74 248.77 633.59 254.5 634.67 260.67 631.84 275.59 628.5 284.36 626.14 290.51 623.52 297.1 620.81 304.07 618.65 311.16 616.75 318.57 615.27 326.26 614.77 334.01 614.94 341.98 615.86 350.13 617.95 358.28 620.82 366.58 624.4 374.99 628.96 383.39 633.85 391.71 638.86 399.92 644.28 408.16 649.37 416.33 653.93 424.47 658.28 432.69 661.72 440.94 664.11 449.28 665.83 457.78 666.31 466.47 665.51 475.37 663.86 484.55 660.93 494.03 656.8 503.86 651.88 513.98 645.91 524.45 639.02 535.23 631.57 546.21 623.41 557.37 614.7 568.56 605.71 579.63 596.38 590.43 586.82 600.71 577.22 610.35 567.54 619.05 557.88 626.53 548.32 632.84 538.85 637.58 529.51 640.56 520.34 642.17 511.3 642.02 502.42 640.18 493.71 637.41 485.11 633.46 476.63 628.72 468.28 624.16 459.99 619.71 451.75 615.87 443.6 613.58 435.45 612.71 427.3 613.59 419.18 616.73 411.03 621.73 402.85 628.42 394.67 636.75 386.44 645.92 378.16 655.28 369.88 664.47 361.75 672.27 353.79 678.12 345.83 682.1 338.05 683.41 330.46 682.01 322.9 678.37 315.54 672.29 308.44 664.18 301.35 654.74 294.53 644.17 287.99 633.04 281.48 621.96 275.26 611.21 269.36 601.15 263.47 592.2 257.89 584.38 252.63 577.75 244.87 570.49 230.74 562.38 224.28 560.31 217.87 559.08 205.74 555.11 199.92 551.53 195.85 548.63 191.89 544.91 188.04 540.39 183.94 535.53 179.96 529.91 176.1 523.61 172.03 517.04 168.11 509.89 164.4 502.27 160.55 494.48 156.96 486.31 153.69 477.87 150.41 469.35 147.53 460.62 145.11 451.75 142.81 442.87 141.07 433.88 139.94 424.82 139.06 415.76 138.88 406.85 139.38 398.08 140.17 389.3 141.65 380.64 143.78 372.07 146.19 363.45 149.2 354.87 152.79 346.32 156.56 337.65 160.84 328.95 165.56 320.19 170.37 311.27 175.54 302.25 181.03 293.14 186.49 283.87 192.2 274.51 198.11 265.1 203.91 255.62 209.86 246.18 215.94 236.87 221.85 227.69 227.86 218.82 233.97 210.38 239.89 202.34 245.92 194.96 252.04 188.37 257.98 182.43 264.05 177.45 270.25 173.5 276.3 170.28 282.52 168.08 288.91 166.88 295.18 166.16 301.66 166.2 308.35 166.84 314.97 167.42 321.82 168.18 328.93 168.93 335.98 168.99 343.29 168.65 350.88 167.78 358.44 165.87 366.28 163.34 374.41 160.25 382.53 156.32 390.95 152.16 399.67 148.03" stroke-dasharray="4 8" transform="rotate(12.12, 400, 400)" opacity="0.25"></path><path d="M404.91 159.05C413.36 154.91 421.91 151.45 430.56 148.87 439.21 146.95 447.96 146.27 456.78 146.9 465.62 148.49 474.52 151.4 483.46 155.5 492.41 160.37 501.38 166.16 510.31 172.66 519.22 179.43 528.05 186.53 536.74 193.77 545.34 200.77 553.73 207.62 561.82 214.21 569.72 220.24 577.22 225.92 584.23 231.24 590.92 235.93 597.02 240.34 602.42 244.53 609.48 250.03 618.77 260.66 620.85 266.25 621.43 272.01 618.41 285.49 615.35 293.34 613.28 298.79 611.02 304.66 608.72 310.94 606.97 317.27 605.47 323.98 604.37 331.01 604.16 338.08 604.56 345.43 605.6 353.04 607.7 360.66 610.48 368.51 613.87 376.57 618.14 384.63 622.69 392.72 627.34 400.82 632.38 408.94 637.13 417.12 641.42 425.36 645.55 433.68 648.89 442.13 651.32 450.73 653.18 459.47 653.94 468.44 653.55 477.64 652.42 487.04 650.12 496.72 646.71 506.67 642.57 516.79 637.43 527.15 631.4 537.66 624.82 548.19 617.52 558.71 609.63 569.06 601.42 579.11 592.8 588.69 583.89 597.58 574.87 605.74 565.7 612.86 556.47 618.72 547.27 623.47 538.09 626.72 528.98 628.38 519.99 628.89 511.09 627.9 502.3 625.53 493.65 622.52 485.11 618.65 476.68 614.26 468.36 610.27 460.11 606.56 451.95 603.55 443.85 602.06 435.8 601.94 427.78 603.4 419.81 606.91 411.83 612.05 403.87 618.65 395.92 626.68 387.97 635.4 380.01 644.25 372.06 652.95 364.29 660.39 356.71 666.08 349.14 670.12 341.77 671.77 334.62 670.96 327.47 668.11 320.55 662.97 313.89 655.87 307.23 647.43 300.83 637.76 294.71 627.35 288.6 616.77 282.77 606.24 277.23 596.13 271.69 586.82 266.43 578.39 261.46 570.94 256.45 564.71 251.71 559.49 247.23 555.16 240.51 550.62 227.96 544.83 222.02 542.48 215.96 540.17 204.1 532.95 198.26 527.65 194.17 523.67 190.19 518.99 186.33 513.67 182.28 508.13 178.39 502 174.7 495.35 170.9 488.55 167.35 481.31 164.11 473.69 160.87 466 158.03 458.01 155.63 449.77 153.36 441.5 151.62 433.02 150.48 424.36 149.57 415.71 149.34 407.07 149.76 398.49 150.47 389.89 151.85 381.31 153.85 372.75 156.12 364.15 158.99 355.52 162.41 346.86 166.02 338.13 170.13 329.32 174.68 320.45 179.33 311.48 184.35 302.43 189.69 293.32 195.02 284.14 200.62 274.94 206.42 265.77 212.14 256.65 218.03 247.66 224.05 238.91 229.92 230.39 235.92 222.27 242.01 214.68 247.93 207.55 253.95 201.11 260.06 195.5 266.01 190.51 272.07 186.44 278.25 183.35 284.28 180.87 290.46 179.3 296.79 178.6 303 178.24 309.4 178.49 315.99 179.19 322.49 179.73 329.21 180.36 336.15 180.88 343.04 180.71 350.17 180.12 357.56 179.02 364.9 176.94 372.52 174.29 380.41 171.14 388.28 167.23 396.45 163.12 404.9 159.06" stroke-dasharray="3 11" transform="rotate(16.16, 400, 400)" opacity="0.56"></path><path d="M409.87 170.08C418.03 166.02 426.27 162.6 434.58 159.99 442.89 157.97 451.28 157.1 459.7 157.45 468.13 158.68 476.59 161.15 485.05 164.77 493.5 169.16 501.92 174.48 510.27 180.54 518.56 186.96 526.73 193.8 534.71 200.88 542.58 207.85 550.19 214.78 557.46 221.56 564.53 227.91 571.18 233.97 577.33 239.73 583.17 244.94 588.42 249.86 593 254.53 598.93 260.73 606.39 272.26 607.86 278.01 608.09 283.69 605.08 296.41 602.35 303.64 600.59 308.6 598.69 313.94 596.8 319.68 595.43 325.44 594.32 331.57 593.55 338.06 593.62 344.56 594.21 351.39 595.36 358.54 597.46 365.69 600.13 373.15 603.34 380.89 607.33 388.64 611.55 396.5 615.85 404.47 620.52 412.46 624.93 420.59 628.94 428.85 632.85 437.18 636.07 445.69 638.49 454.39 640.44 463.19 641.42 472.22 641.38 481.47 640.7 490.83 638.95 500.41 636.19 510.16 632.78 519.96 628.42 529.86 623.21 539.76 617.47 549.53 611.01 559.12 603.95 568.37 596.55 577.19 588.69 585.41 580.49 592.82 572.13 599.47 563.55 605.04 554.84 609.37 546.11 612.71 537.33 614.68 528.57 615.25 519.86 614.9 511.21 613.32 502.63 610.64 494.15 607.59 485.76 603.96 477.46 600.05 469.25 596.69 461.12 593.75 453.08 591.56 445.11 590.83 437.19 591.38 429.34 593.37 421.52 597.18 413.74 602.41 406.01 608.88 398.29 616.59 390.6 624.88 382.96 633.23 375.31 641.44 367.87 648.51 360.66 654.02 353.44 658.1 346.44 660.04 339.67 659.75 332.9 657.62 326.37 653.37 320.1 647.25 313.82 639.8 307.79 631.08 302.03 621.49 296.26 611.54 290.76 601.42 285.53 591.45 280.27 582.02 275.27 573.21 270.53 565.16 265.74 558.12 261.18 551.95 256.86 546.61 250.32 540.43 237.99 531.85 232.1 528.55 226.05 525.7 214.19 518.62 208.34 513.9 204.26 510.47 200.29 506.45 196.45 501.85 192.43 497.11 188.57 491.8 184.92 485.97 181.16 480.02 177.67 473.59 174.48 466.73 171.29 459.81 168.49 452.52 166.13 444.89 163.89 437.23 162.16 429.28 161.01 421.06 160.08 412.83 159.8 404.54 160.16 396.2 160.78 387.85 162.05 379.45 163.92 370.99 166.05 362.52 168.76 353.97 172 345.36 175.44 336.71 179.37 327.98 183.72 319.19 188.2 310.37 193.04 301.49 198.2 292.61 203.39 283.75 208.84 274.93 214.51 266.23 220.13 257.67 225.92 249.33 231.85 241.32 237.67 233.61 243.62 226.38 249.66 219.73 255.56 213.56 261.56 208.1 267.65 203.45 273.6 199.38 279.65 196.17 285.8 193.84 291.82 192.01 297.96 190.97 304.24 190.66 310.41 190.55 316.74 190.91 323.23 191.61 329.64 192.05 336.25 192.49 343.05 192.77 349.8 192.35 356.76 191.51 363.95 190.18 371.11 187.94 378.51 185.19 386.16 181.99 393.8 178.11 401.69 174.07 409.86 170.08" stroke-dasharray="8 3" transform="rotate(20.200000000000003, 400, 400)" opacity="0.83"></path><path d="M414.29 181.11C422.14 177.15 430.05 173.77 437.98 171.15 445.93 169.05 453.91 168 461.89 168.08 469.87 168.96 477.84 171.01 485.77 174.16 493.68 178.05 501.51 182.87 509.22 188.45 516.86 194.45 524.34 200.94 531.59 207.77 538.71 214.59 545.54 221.49 552.01 228.34 558.28 234.88 564.11 241.23 569.44 247.35 574.49 252.99 578.97 258.38 582.81 263.52 587.75 270.46 593.69 283.18 594.7 289.3 594.71 295.18 591.89 307.76 589.54 314.68 587.32 321.85 583.67 337.94 582.83 346.87 583.14 352.93 583.89 359.36 585.14 366.12 587.22 372.89 589.79 379.99 592.8 387.45 596.53 394.9 600.44 402.53 604.4 410.32 608.7 418.13 612.79 426.12 616.52 434.29 620.2 442.51 623.27 450.92 625.64 459.52 627.65 468.17 628.79 477.03 629.03 486.04 628.72 495.1 627.47 504.28 625.29 513.53 622.53 522.72 618.89 531.88 614.45 540.89 609.51 549.66 603.87 558.12 597.62 566.09 591.03 573.57 583.96 580.36 576.5 586.28 568.85 591.47 560.93 595.61 552.82 598.58 544.65 600.7 536.37 601.61 528.05 601.33 519.74 600.38 511.43 598.43 503.17 595.67 494.96 592.77 486.81 589.51 478.73 586.17 470.72 583.49 462.78 581.31 454.93 579.91 447.13 579.89 439.4 581.05 431.75 583.48 424.13 587.53 416.57 592.8 409.08 599.12 401.61 606.5 394.18 614.34 386.83 622.2 379.47 629.94 372.35 636.65 365.46 641.96 358.57 646.04 351.91 648.2 345.49 648.37 339.05 646.91 332.86 643.48 326.92 638.3 320.97 631.84 315.26 624.08 309.8 615.37 304.33 606.17 299.09 596.6 294.11 586.97 289.09 577.64 284.3 568.69 279.74 560.28 275.12 552.66 270.7 545.74 266.48 539.55 260.08 531.91 247.89 520.47 242.02 516.02 235.98 512.3 224.11 504.51 218.26 499.92 212.22 494.91 200.55 482.38 195.04 474.81 191.35 469.52 187.91 463.75 184.78 457.55 181.67 451.29 178.92 444.62 176.6 437.56 174.4 430.49 172.7 423.05 171.54 415.29 170.6 407.52 170.28 399.61 170.56 391.59 171.11 383.57 172.26 375.44 173.99 367.22 175.98 359 178.52 350.68 181.57 342.29 184.83 333.89 188.55 325.42 192.7 316.92 196.98 308.45 201.62 299.97 206.59 291.53 211.6 283.19 216.88 274.96 222.38 266.93 227.86 259.1 233.53 251.57 239.34 244.44 245.08 237.65 250.94 231.37 256.91 225.71 262.76 220.51 268.72 216.01 274.77 212.28 280.69 209.06 286.7 206.61 292.82 204.94 298.81 203.65 304.92 203.02 311.14 202.98 317.26 203.03 323.53 203.43 329.93 204.04 336.26 204.33 342.75 204.55 349.42 204.57 356.03 203.89 362.84 202.81 369.84 201.26 376.81 198.88 384 196.04 391.41 192.82 398.8 188.98 406.42 185.01 414.28 181.11" stroke-dasharray="7 9" transform="rotate(24.24, 400, 400)" opacity="0.85"></path><path d="M417.93 192.13C425.45 188.28 432.99 184.96 440.53 182.34 448.07 180.18 455.61 178.98 463.12 178.8 470.61 179.36 478.06 181 485.42 183.68 492.76 187.07 499.97 191.36 507.02 196.43 514 201.95 520.78 208.03 527.29 214.5 533.68 221.07 539.75 227.82 545.45 234.62 550.96 241.23 556.03 247.74 560.61 254.09 564.94 260.07 568.74 265.85 571.94 271.41 576.04 279.05 580.77 293.08 581.45 299.71 581.34 305.99 578.87 318.91 576.92 325.78 575.2 332.78 572.59 348.21 572.2 356.72 572.71 362.48 573.61 368.59 574.92 375.05 576.97 381.5 579.44 388.3 582.27 395.47 585.73 402.63 589.34 410 592.98 417.55 596.93 425.11 600.7 432.87 604.14 440.81 607.58 448.76 610.49 456.9 612.78 465.19 614.8 473.5 616.05 481.94 616.51 490.47 616.52 498.98 615.68 507.51 614.01 515.99 611.84 524.35 608.85 532.54 605.11 540.46 600.93 548.09 596.07 555.28 590.61 561.9 584.82 568.03 578.53 573.41 571.84 577.93 564.93 581.77 557.72 584.64 550.27 586.46 542.72 587.59 535.01 587.69 527.21 586.82 519.39 585.49 511.52 583.41 503.66 580.75 495.81 578.14 487.99 575.36 480.23 572.67 472.5 570.7 464.83 569.27 457.23 568.61 449.68 569.24 442.19 570.92 434.78 573.74 427.4 577.96 420.08 583.22 412.85 589.36 405.63 596.4 398.48 603.79 391.42 611.17 384.35 618.44 377.53 624.78 370.94 629.89 364.35 633.93 357.99 636.28 351.88 636.85 345.75 635.97 339.86 633.31 334.2 629.02 328.53 623.51 323.09 616.73 317.89 608.94 312.65 600.56 307.64 591.68 302.86 582.56 298.02 573.52 293.4 564.65 288.98 556.13 284.48 548.16 280.16 540.74 276.03 533.89 271.77 527.79 267.67 522.26 263.71 517.25 257.61 510.92 245.71 500.46 239.87 495.75 233.85 491.33 222.02 481.52 216.27 475.8 212.36 471.87 208.61 467.51 205.06 462.71 201.45 457.88 198.1 452.61 195.03 446.92 192 441.19 189.32 435.05 187.05 428.51 184.9 421.96 183.23 415.02 182.07 407.73 181.13 400.43 180.76 392.95 180.98 385.33 181.44 377.72 182.48 369.96 184.07 362.11 185.91 354.26 188.27 346.32 191.13 338.32 194.19 330.34 197.71 322.32 201.63 314.31 205.69 306.36 210.12 298.46 214.86 290.67 219.67 283.02 224.75 275.55 230.06 268.34 235.37 261.36 240.88 254.74 246.54 248.57 252.15 242.74 257.9 237.44 263.76 232.76 269.54 228.5 275.41 224.9 281.38 222.01 287.25 219.53 293.21 217.73 299.26 216.6 305.21 215.73 311.26 215.4 317.41 215.53 323.47 215.64 329.66 215.98 335.96 216.45 342.2 216.54 348.58 216.51 355.1 216.25 361.58 215.32 368.22 214 375.03 212.26 381.81 209.75 388.78 206.84 395.92 203.6 403.06 199.82 410.39 195.94 417.92 192.14" stroke-dasharray="11 9" transform="rotate(28.28, 400, 400)" opacity="0.21"></path><path d="M420.59 203.16C427.76 199.42 434.91 196.17 442.03 193.57 449.15 191.36 456.22 190.02 463.22 189.62 470.21 189.87 477.11 191.13 483.89 193.35 490.63 196.23 497.22 200 503.61 204.53 509.94 209.53 516.02 215.12 521.82 221.16 527.51 227.39 532.86 233.87 537.84 240.49 542.64 247.03 547.02 253.56 550.93 260.02 554.64 266.21 557.84 272.26 560.5 278.14 563.9 286.38 567.7 301.65 568.18 308.85 568.07 315.65 566.06 329.25 564.53 336.27 563.29 343.31 561.65 358.5 561.65 366.75 562.34 372.32 563.36 378.21 564.72 384.41 566.73 390.61 569.09 397.14 571.74 404.02 574.95 410.89 578.26 417.96 581.59 425.2 585.21 432.44 588.66 439.85 591.82 447.41 595.01 454.97 597.74 462.67 599.94 470.46 601.92 478.24 603.24 486.07 603.87 493.9 604.13 501.66 603.64 509.35 602.4 516.88 600.74 524.24 598.34 531.33 595.24 538.06 591.75 544.46 587.62 550.37 582.91 555.66 577.89 560.48 572.37 564.56 566.44 567.82 560.28 570.51 553.79 572.32 547.04 573.22 540.16 573.61 533.08 573.16 525.87 571.93 518.61 570.45 511.26 568.43 503.86 566.03 496.47 563.84 489.06 561.63 481.68 559.6 474.31 558.34 466.98 557.63 459.7 557.66 452.45 558.86 445.26 561 438.14 564.12 431.04 568.46 424.01 573.67 417.06 579.6 410.12 586.28 403.25 593.24 396.48 600.15 389.7 606.95 383.16 612.93 376.86 617.81 370.55 621.79 364.48 624.27 358.64 625.18 352.78 624.83 347.14 622.86 341.74 619.39 336.31 614.8 331.09 608.97 326.1 602.12 321.06 594.64 316.24 586.53 311.61 578.05 306.93 569.49 302.43 560.92 298.11 552.5 293.71 544.43 289.47 536.74 285.38 529.48 281.18 522.79 277.11 516.59 273.17 510.85 269.08 505.7 265.1 500.92 261.22 496.46 255.21 490.55 243.37 479.73 237.57 474.38 231.65 469.09 220.3 457.32 214.99 450.64 211.48 446.07 208.21 441.13 205.23 435.81 202.29 430.47 199.69 424.75 197.48 418.66 195.39 412.56 193.75 406.09 192.6 399.26 191.65 392.43 191.26 385.42 191.41 378.27 191.79 371.12 192.71 363.84 194.17 356.46 195.84 349.11 198.03 341.68 200.69 334.22 203.54 326.8 206.83 319.39 210.52 312.02 214.34 304.75 218.53 297.58 223.03 290.58 227.61 283.74 232.46 277.14 237.55 270.84 242.66 264.8 247.97 259.13 253.45 253.94 258.9 249.06 264.49 244.72 270.21 240.95 275.86 237.55 281.62 234.76 287.48 232.59 293.25 230.74 299.12 229.46 305.07 228.74 310.94 228.17 316.91 228.02 322.96 228.21 328.94 228.29 335.03 228.51 341.21 228.78 347.34 228.64 353.59 228.34 359.95 227.8 366.28 226.62 372.75 225.08 379.35 223.16 385.92 220.55 392.65 217.59 399.52 214.35 406.39 210.64 413.41 206.86 420.58 203.17" stroke-dasharray="3 9" transform="rotate(32.32, 400, 400)" opacity="0.73"></path><path d="M422.13 214.19C428.93 210.57 435.67 207.41 442.34 204.83 449.01 202.59 455.6 201.15 462.08 200.54 468.55 200.51 474.9 201.4 481.09 203.19 487.24 205.58 493.21 208.81 498.96 212.79 504.64 217.24 510.07 222.29 515.2 227.84 520.23 233.62 524.92 239.73 529.24 246.06 533.41 252.4 537.18 258.82 540.51 265.24 543.67 271.5 546.37 277.68 548.6 283.75 551.44 292.42 554.58 308.74 554.97 316.47 554.93 323.8 553.46 338.23 552.36 345.51 551.58 352.74 550.83 367.97 551.19 376.09 552.03 381.55 553.14 387.27 554.54 393.27 556.5 399.25 558.73 405.53 561.21 412.1 564.17 418.67 567.21 425.39 570.23 432.24 573.54 439.09 576.67 446.06 579.56 453.12 582.5 460.17 585.04 467.28 587.11 474.42 589.03 481.52 590.38 488.59 591.12 495.57 591.57 502.45 591.36 509.17 590.49 515.65 589.26 521.93 587.37 527.88 584.85 533.4 580.25 540.94 567.83 552.46 560.25 556.13 554.84 557.88 549.08 558.88 543.03 559.11 536.84 559 530.43 558.23 523.85 556.88 517.19 555.44 510.42 553.65 503.56 551.64 496.68 549.95 489.75 548.35 482.82 547.01 475.88 546.43 468.95 546.4 462.05 547.05 455.17 548.75 448.32 551.27 441.54 554.63 434.76 559.03 428.05 564.14 421.41 569.83 414.77 576.16 408.21 582.68 401.73 589.12 395.24 595.47 388.99 601.09 382.97 605.73 374.03 610.9 357.21 612.81 349.32 609.43 344.11 605.69 339.09 600.78 334.27 594.88 329.4 588.31 324.72 581.06 320.22 573.33 315.66 565.39 311.26 557.28 307.03 549.17 302.7 541.24 298.52 533.52 294.47 526.08 290.31 519.06 286.27 512.4 282.34 506.13 278.27 500.34 274.3 494.89 270.42 489.76 264.44 482.79 252.68 470.16 246.93 464.15 241.1 458.35 230 446.14 224.83 439.52 219.84 432.66 211.28 417.44 207.89 409.02 205.87 403.3 204.27 397.25 203.14 390.88 202.19 384.52 201.76 377.99 201.85 371.35 202.15 364.71 202.96 357.97 204.27 351.17 205.8 344.4 207.8 337.59 210.25 330.78 212.88 324.04 215.94 317.34 219.38 310.74 222.96 304.25 226.89 297.9 231.12 291.77 235.45 285.82 240.05 280.13 244.89 274.78 249.77 269.67 254.85 264.95 260.1 260.7 265.35 256.72 270.75 253.25 276.28 250.31 281.77 247.66 287.37 245.54 293.07 243.97 301.58 242.16 318.94 240.83 327.77 240.94 333.64 240.92 339.59 240.96 345.63 240.99 351.62 240.6 357.71 240.02 363.89 239.21 370.05 237.79 376.31 236.05 382.67 233.97 389.02 231.27 395.49 228.28 402.06 225.07 408.63 221.44 415.32 217.76 422.12 214.19" stroke-dasharray="10 7" transform="rotate(36.36, 400, 400)" opacity="0.81"></path><path d="M422.46 225.22C428.86 221.73 435.18 218.67 441.39 216.13 447.6 213.88 453.7 212.35 459.67 211.56 471.54 211.56 482.77 214.9 493.12 221.25 503.2 229.43 512.18 239.76 519.78 251.46 526.91 263.51 532.48 275.97 536.36 288.34 539.77 300.04 541.58 311.39 541.89 322.39 542.24 332.6 541.63 342.74 540.44 352.98 540.26 362.77 540.27 373.04 540.8 383.92 541.77 389.31 542.95 394.91 544.36 400.71 546.26 406.5 548.37 412.51 550.68 418.76 553.4 425.01 556.17 431.34 558.91 437.74 561.91 444.13 564.75 450.58 567.37 457.05 572.74 469.92 576.49 482.69 578.3 494.92 579.22 506.68 577.75 517.36 573.99 526.41 569.06 534.33 562.02 540.02 553.25 543.12 543.67 544.96 532.78 544.42 521.01 541.9 508.91 539.59 496.26 536.91 483.4 534.94 470.49 535.84 457.51 539.15 444.68 545.25 438.27 549.65 431.91 554.63 425.6 560.06 419.3 566.02 413.06 572.1 406.88 578.09 400.71 584 394.74 589.25 388.98 593.65 383.22 597.41 377.66 600.04 372.3 601.45 361.52 601.43 351.49 596.4 342.19 587.16 332.72 575.3 323.85 561.12 315.59 545.94 307 530.89 298.85 516.36 291.14 502.88 282.96 490.82 275.1 479.87 267.6 469.81 259.62 460.87 252.01 452.18 244.95 443.35 237.63 434.96 231.04 425.93 225.47 416.06 221.54 408.57 215.55 392.33 213.67 383.57 212.73 377.64 212.28 371.61 212.3 365.5 212.53 359.41 213.23 353.25 214.4 347.08 217.33 334.83 222.02 322.69 228.23 311.02 235 299.79 243.05 289.43 252.1 280.36 261.36 272.1 271.4 265.48 281.99 260.76 292.54 256.85 303.53 254.67 314.83 254.05 325.97 253.29 337.45 253.14 349.17 253.04 360.77 251.24 372.72 248.52 384.94 244.67 391.03 241.92 397.21 238.92 403.47 235.75 409.72 232.21 416.05 228.66 422.45 225.22" stroke-dasharray="7 6" transform="rotate(40.400000000000006, 400, 400)" opacity="0.12"></path><path d="M421.57 236.24C433.55 229.62 445.07 224.93 455.99 222.69 466.83 222.17 476.96 224.68 486.16 229.96 495.13 236.98 503.01 246.15 509.59 256.82 515.8 268.08 520.61 279.99 523.92 292.06 526.93 303.78 528.59 315.34 529.01 326.61 529.59 337.29 529.41 347.84 528.77 358.35 529.09 368.47 529.58 378.86 530.49 389.61 533.03 400.24 536.28 411.44 540.15 423.22 545.47 435.01 550.64 446.85 555.24 458.52 560.12 470.08 563.61 481.24 565.43 491.61 566.57 501.52 565.65 510.19 562.69 517.17 558.77 523.25 552.92 527.29 545.44 529.12 537.22 530.16 527.71 529.36 517.25 527.19 506.44 525.62 494.99 524.07 483.21 523.4 471.34 525.4 459.29 529.53 447.29 535.97 435.29 545.31 423.37 556.09 411.66 567.06 399.95 577.78 388.96 585.52 378.72 589.4 368.4 590.16 358.73 586.48 349.71 578.93 340.52 568.89 331.85 556.4 323.71 542.57 315.27 528.43 307.21 514.31 299.55 500.79 291.48 488.25 283.71 476.57 276.3 465.72 268.5 455.82 261.08 446.32 254.22 436.96 247.17 428.06 240.85 418.83 235.51 409.13 230.38 399.51 226.51 389.2 224.2 378.18 222.52 367.16 222.67 355.99 224.55 344.91 227.16 333.96 231.41 323.31 237.09 313.3 243.32 303.68 250.78 295.02 259.21 287.66 267.9 280.94 277.38 275.73 287.41 272.18 297.47 269.12 307.99 267.46 318.82 266.97 329.56 266.08 340.61 265.53 351.87 264.87 363.05 262.57 374.49 259.41 386.13 255.27 397.74 249.28 409.58 242.71 421.56 236.25" stroke-dasharray="4 5" transform="rotate(44.44, 400, 400)" opacity="0.50"></path><path d="M419.5 247.27C430.63 240.94 441.22 236.35 451.14 233.93 460.99 232.96 470.08 234.69 478.24 238.96 486.22 244.82 493.14 252.78 498.86 262.29 504.31 272.55 508.51 283.66 511.43 295.14 514.17 306.55 515.79 317.98 516.39 329.23 517.23 340.11 517.48 350.85 517.35 361.46 518.13 371.78 519.03 382.19 520.26 392.74 522.87 403.19 526.02 413.94 529.61 424.97 534.45 436 539.08 446.79 543.18 457.13 547.58 467.37 550.78 476.96 552.54 485.58 553.56 497.25 545.56 512.05 536.84 514.52 529.89 515.19 521.68 514.52 512.5 512.96 502.98 512.28 492.74 511.87 482.08 512.41 471.3 515.36 460.24 520.13 449.12 526.78 437.99 535.81 426.84 545.91 415.8 556.04 404.77 565.94 394.34 573.25 384.55 577.25 374.69 578.65 365.39 576.16 356.64 570.17 347.74 561.89 339.28 551.15 331.28 538.86 323.01 525.95 315.08 512.63 307.51 499.52 299.6 486.97 291.97 475 284.71 463.72 277.14 453.17 269.97 443.08 263.35 433.3 256.61 423.93 250.59 414.52 245.51 404.93 240.64 395.45 236.96 385.58 234.73 375.34 233.07 365.1 233.1 354.98 234.73 345.18 237.01 335.47 240.83 326.26 245.98 317.8 251.65 309.66 258.49 302.52 266.27 296.63 274.33 291.18 283.18 287.08 292.59 284.36 302.07 281.86 312.03 280.44 322.29 279.87 332.53 278.71 343.06 277.69 353.76 276.45 364.43 273.67 375.31 270.12 386.29 265.77 397.26 259.82 408.37 253.46 419.5 247.27" stroke-dasharray="6 4" transform="rotate(48.48, 400, 400)" opacity="0.99"></path><path d="M416.37 258.3C426.63 252.29 436.3 247.82 445.26 245.27 454.17 243.92 462.31 244.96 469.54 248.28 476.63 253.02 482.73 259.75 487.75 268.03 492.59 277.13 496.34 287.21 498.99 297.86 501.58 308.64 503.24 319.61 504.07 330.54 505.2 341.28 505.85 351.93 506.2 362.41 507.36 372.71 508.61 382.98 510.09 393.19 512.74 403.34 515.77 413.57 519.08 423.79 523.45 434.02 527.57 443.74 531.18 452.82 535.11 461.79 537.99 469.94 539.65 477.03 540.87 486.54 534.72 497.96 527.5 499.72 521.7 500.38 514.69 500.14 506.72 499.39 498.44 499.65 489.41 500.34 479.86 501.97 470.2 505.71 460.17 510.95 449.97 517.68 439.75 526.32 429.41 535.72 419.09 545.01 408.76 554.11 398.92 560.97 389.6 564.99 380.23 566.9 371.31 565.44 362.86 560.87 354.27 554.26 346.06 545.27 338.23 534.63 330.18 523.16 322.43 510.98 315 498.67 307.3 486.56 299.89 474.75 292.84 463.44 285.55 452.63 278.67 442.25 272.35 432.26 265.95 422.61 260.26 413.1 255.46 403.66 250.88 394.33 247.41 384.89 245.26 375.39 243.63 365.88 243.56 356.74 244.94 348.11 246.91 339.55 250.29 331.63 254.91 324.54 260.01 317.68 266.21 311.8 273.32 307.07 280.71 302.6 288.86 299.28 297.58 297.08 306.42 294.87 315.73 293.45 325.34 292.62 334.98 291.09 344.89 289.55 354.96 287.74 365.02 284.53 375.24 280.66 385.51 276.16 395.78 270.31 406.11 264.19 416.37 258.3" stroke-dasharray="10 3" transform="rotate(52.52, 400, 400)" opacity="0.37"></path><path d="M412.35 269.32C421.73 263.65 430.5 259.35 438.57 256.72 446.6 255.07 453.86 255.5 460.28 257.94 466.6 261.62 472.02 267.13 476.48 274.15 480.83 281.99 484.26 290.9 486.75 300.48 489.28 310.36 491.03 320.58 492.11 330.88 493.52 341.15 494.54 351.4 495.31 361.5 496.79 371.51 498.32 381.42 499.98 391.15 502.62 400.85 505.51 410.45 508.55 419.83 512.47 429.21 516.11 437.92 519.26 445.83 524 457.12 528.09 474.26 526.76 479.65 523.43 483.51 509.74 486.28 499.94 486.62 492.82 487.82 484.94 489.52 476.5 492.08 467.94 496.42 458.94 501.97 449.68 508.64 440.4 516.82 430.9 525.51 421.33 533.98 411.75 542.3 402.53 548.68 393.72 552.65 384.87 554.94 376.37 554.33 368.24 551.03 360.02 545.95 352.09 538.65 344.5 529.69 336.73 519.81 329.21 509.02 322 497.83 314.59 486.56 307.45 475.33 300.67 464.4 293.73 453.74 287.2 443.42 281.21 433.51 275.2 423.83 269.86 414.39 265.37 405.21 261.09 396.11 257.83 387.13 255.79 378.31 254.21 369.49 254.04 361.24 255.19 353.65 256.86 346.09 259.81 339.26 263.9 333.3 268.43 327.46 273.98 322.55 280.39 318.66 287.08 314.86 294.5 312.01 302.47 310.04 310.59 307.88 319.18 306.28 328.07 305.06 337.01 303.09 346.23 301.04 355.57 298.7 364.94 295.13 374.43 291.02 383.93 286.43 393.45 280.74 402.96 274.89 412.35 269.32" stroke-dasharray="8 10" transform="rotate(56.56, 400, 400)" opacity="0.73"></path><path d="M407.65 280.35C416.15 275.04 424.06 270.94 431.3 268.28 438.5 266.4 444.99 266.3 450.7 267.97 456.35 270.67 461.2 275.03 465.23 280.79 469.21 287.34 472.4 294.96 474.83 303.34 477.33 312.09 479.22 321.3 480.55 330.71 482.22 340.21 483.56 349.77 484.68 359.22 486.41 368.67 488.15 377.99 489.94 387.07 492.53 396.16 495.25 405.02 498.02 413.54 501.51 422.07 504.69 429.82 507.41 436.72 513.4 453.79 511.73 469.23 506.88 471.19 502.96 472.61 498.01 473.71 492.19 474.77 486.15 476.84 479.35 479.41 471.96 482.7 464.47 487.47 456.49 493.16 448.17 499.67 439.83 507.33 431.2 515.28 422.4 522.95 413.6 530.49 405.04 536.37 396.78 540.23 388.5 542.77 380.47 542.87 372.74 540.65 364.93 536.95 357.35 531.22 350.06 523.91 342.64 515.68 335.44 506.42 328.53 496.57 321.46 486.47 314.67 476.18 308.24 465.99 301.7 455.89 295.56 446 289.95 436.45 284.36 427.04 279.4 417.92 275.24 409.13 271.28 400.4 268.25 391.92 266.33 383.77 264.8 375.62 264.54 368.16 265.48 361.43 266.86 354.72 269.4 348.77 272.97 343.66 276.93 338.58 281.84 334.35 287.53 330.99 293.5 327.58 300.16 324.93 307.35 322.95 314.7 320.65 322.49 318.75 330.6 317.07 338.78 314.65 347.21 312.11 355.77 309.31 364.37 305.46 373.08 301.19 381.76 296.6 390.47 291.11 399.14 285.58 407.65 280.35" stroke-dasharray="4 5" transform="rotate(60.599999999999994, 400, 400)" opacity="0.43"></path><path d="M402.53 291.38C410.17 286.44 417.25 282.57 423.71 279.94 433.05 277.65 448.32 281.86 454.2 288.07 457.88 293.34 460.92 299.64 463.32 306.72 465.84 314.21 467.86 322.24 469.43 330.55 471.3 339.03 472.9 347.65 474.3 356.22 476.22 364.85 478.1 373.38 479.95 381.67 482.45 389.97 484.99 398.02 487.49 405.68 490.57 413.34 493.33 420.22 495.65 426.27 500.81 441.27 499.74 455.63 495.78 458.2 490.53 461.1 475.58 468.37 466.29 473.83 459.8 478.83 452.8 484.51 445.42 490.74 438.01 497.82 430.26 505.04 422.26 511.93 414.26 518.71 406.4 524.07 398.74 527.75 391.07 530.42 383.57 531.06 376.29 529.75 368.97 527.24 361.82 522.95 354.91 517.19 347.91 510.58 341.11 502.91 334.57 494.55 327.94 485.82 321.56 476.74 315.54 467.58 309.46 458.38 303.77 449.25 298.58 440.36 293.44 431.53 288.89 422.95 285.08 414.72 281.45 406.52 278.66 398.63 276.86 391.13 275.4 383.64 275.07 376.88 275.81 370.86 277.99 362.18 287.67 348.56 294.79 343.55 300.03 340.31 305.91 337.65 312.29 335.48 318.83 332.94 325.8 330.66 333.06 328.5 340.42 325.67 348.02 322.71 355.74 319.54 363.51 315.51 371.38 311.18 379.22 306.66 387.08 301.43 394.89 296.24 402.53 291.38" stroke-dasharray="11 1" transform="rotate(64.64, 400, 400)" opacity="0.98"></path><path d="M397.28 302.41C404.07 297.87 410.36 294.27 416.1 291.71 424.41 289.18 438.15 291.44 443.56 296.07 447.01 300.13 449.92 305.15 452.33 310.92 454.86 317.09 456.99 323.82 458.75 330.9 460.78 338.19 462.57 345.69 464.18 353.22 466.2 360.83 468.15 368.4 470.01 375.77 472.39 383.17 474.73 390.34 476.96 397.15 480.83 407 486.91 423.07 488.63 429.28 488.59 438.99 479.99 450.25 474.19 454.13 469.94 457.51 465.03 461.25 459.55 465.42 454 470.48 447.93 476 441.46 481.84 434.95 488.31 428.08 494.78 420.9 500.9 413.73 506.93 406.6 511.76 399.6 515.21 392.58 517.9 385.68 518.94 378.94 518.36 372.16 516.85 365.52 513.8 359.08 509.45 352.59 504.37 346.26 498.27 340.18 491.42 334.05 484.18 328.16 476.48 322.61 468.56 317.04 460.51 311.84 452.4 307.12 444.42 302.45 436.43 298.33 428.61 294.88 421.09 291.59 413.58 289.05 406.36 287.39 399.53 285.82 389.63 287.93 373.25 291.41 366.7 296.1 360.69 309.27 351.2 317.38 347.34 323.09 344.52 329.21 341.86 335.61 339.27 342.1 336.09 348.83 332.81 355.68 329.39 362.58 325.28 369.58 320.98 376.55 316.6 383.54 311.69 390.49 306.88 397.28 302.41" stroke-dasharray="3 7" transform="rotate(68.68, 400, 400)" opacity="0.49"></path><path d="M392.17 313.43C404.09 305.31 414.3 300.84 422.53 300.38 430.78 301.86 437.23 307.47 441.92 316.16 447.1 326.22 451.17 338.27 454.29 350.94 458.75 363.98 462.89 376.99 466.43 388.94 471.39 400.89 474.75 410.52 476.13 417.84 477.65 425.39 476.44 431.3 472.52 436.17 468.17 442.6 461.13 449.54 451.9 457.42 442.43 467.9 431.09 479.27 418.4 489.87 405.72 500.21 392.97 505.92 380.72 506.52 368.4 504.35 356.45 497.31 345.4 486.95 334.26 475.12 324.07 461.56 315.57 447.79 307.33 433.85 301.16 420.28 297.92 407.98 295.61 395.68 296.76 385.7 300.81 377.96 305.78 369.88 313.35 363.45 322.72 358.27 332.61 351.76 343.91 345.37 355.79 338.83 367.85 330.21 380.25 321.36 392.17 313.43" stroke-dasharray="3 9" transform="rotate(72.72, 400, 400)" opacity="0.74"></path><path d="M387.49 324.46C397.81 317.19 406.74 312.94 414.1 311.97 421.51 312.34 427.53 316.15 432.15 322.64 437.2 330.21 441.35 339.71 444.63 350.05 448.93 360.74 452.79 371.69 455.9 382.03 460.08 392.37 462.77 401.07 463.76 408.11 464.95 415.44 463.88 421.75 460.59 427.45 457.06 434.43 451.24 441.84 443.49 449.8 435.57 459.55 425.91 469.67 414.9 478.84 403.89 487.82 392.65 493.07 381.74 494.26 370.81 493.49 360.14 488.7 350.28 480.96 340.42 471.98 331.42 461.16 323.94 449.73 316.74 438.06 311.34 426.38 308.45 415.5 306.31 404.62 307.1 395.5 310.36 388.09 314.34 380.35 320.57 373.76 328.39 368.06 336.63 361.27 346.17 354.55 356.28 347.88 366.55 339.7 377.18 331.58 387.49 324.46" stroke-dasharray="9 1" transform="rotate(76.76, 400, 400)" opacity="0.59"></path><path d="M383.5 335.49C392.25 329.11 399.97 325.21 406.49 323.92 413.07 323.51 418.61 325.85 423.06 330.44 427.86 335.82 431.92 342.96 435.2 351.09 439.2 359.49 442.69 368.42 445.36 377.22 448.81 386.02 450.91 393.84 451.55 400.62 452.4 407.65 451.41 414.17 448.63 420.34 445.74 427.44 440.97 434.87 434.54 442.49 428.01 451.26 419.93 460.04 410.59 467.82 401.24 475.45 391.58 480.13 382.13 481.65 372.69 481.86 363.45 478.88 354.9 473.39 346.4 466.96 338.67 458.73 332.27 449.64 326.12 440.31 321.49 430.6 318.98 421.2 317.04 411.8 317.52 403.55 320.07 396.48 323.14 389.14 328.11 382.54 334.45 376.55 341.12 369.76 348.94 363.04 357.33 356.54 365.84 349.02 374.74 341.74 383.5 335.49" stroke-dasharray="2 11" transform="rotate(80.80000000000001, 400, 400)" opacity="0.65"></path><path d="M380.4 346.52C390.9 339.37 408.02 335.94 414.65 339.63 419.06 343.19 422.86 348.29 425.96 354.42 429.54 360.73 432.6 367.77 434.83 375.08 437.59 382.39 439.16 389.28 439.5 395.64 440.03 402.19 439.1 408.56 436.75 414.75 434.37 421.54 430.49 428.51 425.26 435.43 419.98 443.02 413.39 450.39 405.69 456.79 398 463.09 389.97 467.1 382.07 468.72 374.2 469.54 366.48 467.92 359.33 464.24 352.27 459.94 345.86 454.03 340.56 447.12 335.47 440.02 331.64 432.29 329.52 424.42 327.8 416.55 328.04 409.27 329.94 402.71 332.21 395.95 336.03 389.6 340.99 383.67 346.19 377.21 352.37 370.85 359.1 364.81 365.92 358.15 373.16 351.85 380.4 346.52" stroke-dasharray="5 7" transform="rotate(84.84, 400, 400)" opacity="0.35"></path><path d="M378.37 357.54C389.89 348.8 399.76 346.54 406.94 350.12 414.8 354.77 421.07 364.13 424.3 375.85 428.84 387.56 429 399.48 425.08 410.51 421.18 422.91 412.66 435.78 400.49 445.76 388.32 455.5 375.08 457.87 363.68 453.66 352.57 447.98 343.72 437.39 340.05 424.79 337.43 412.18 340.79 400.01 348.05 389.42 355.91 377.63 366.84 366.07 378.37 357.54" stroke-dasharray="7 4" transform="rotate(88.88, 400, 400)" opacity="0.33"></path><path d="M377.52 368.57C386.14 361.85 393.93 359.73 399.88 361.81 406.21 364.35 411.27 370.61 413.77 379.45 416.98 388.27 416.82 398.09 413.69 407.41 410.64 417.34 404.27 427.31 395.26 434.74 386.25 442.02 376.45 444.23 368.04 441.81 359.84 438.69 353.32 431.66 350.58 422.25 348.45 412.83 350.62 402.88 355.68 393.89 361.08 384.36 368.89 375.17 377.52 368.57" stroke-dasharray="1 8" transform="rotate(92.92, 400, 400)" opacity="0.48"></path><path d="M377.89 379.6C389.4 370.54 400.16 373.55 403.24 385.45 407.56 397.33 402.16 414.04 390.29 423.71 378.41 433.14 365 429.57 361.11 417.11 358.34 404.63 366.38 388.43 377.89 379.6" stroke-dasharray="1 1" transform="rotate(96.96, 400, 400)" opacity="0.23"></path></g></svg>